<mxfile host="app.diagrams.net" modified="2021-03-01T05:55:38.253Z" agent="5.0 (Windows NT 10.0; Win64; x64) AppleWebKit/537.36 (KHTML, like Gecko) Chrome/88.0.4324.190 Safari/537.36" etag="13Gff-yMaTukvB0uUnD7" version="14.4.3" type="github">
  <diagram id="sTk17ND-MVLnAbTTWL7x" name="Page-1">
    <mxGraphModel dx="2153" dy="1892" grid="1" gridSize="10" guides="1" tooltips="1" connect="0" arrows="1" fold="1" page="1" pageScale="1" pageWidth="850" pageHeight="1100" math="0" shadow="0">
      <root>
        <mxCell id="0" />
        <mxCell id="1" parent="0" />
        <mxCell id="Sp3UNYY1HzuNe6qbwxSw-1" value="cluster.go" style="rounded=1;whiteSpace=wrap;html=1;verticalAlign=top;" parent="1" vertex="1">
          <mxGeometry x="15" y="-150" width="485" height="1400" as="geometry" />
        </mxCell>
        <mxCell id="cvl4Ks4fMDcgnYN8bCyd-1" value="serviceInstance list" style="ellipse;whiteSpace=wrap;html=1;verticalAlign=top;" parent="1" vertex="1">
          <mxGeometry x="70" y="500" width="160" height="100" as="geometry" />
        </mxCell>
        <mxCell id="Sp3UNYY1HzuNe6qbwxSw-11" value="listener.go" style="rounded=1;whiteSpace=wrap;html=1;verticalAlign=top;" parent="1" vertex="1">
          <mxGeometry x="-310" y="110" width="250" height="900" as="geometry" />
        </mxCell>
        <mxCell id="Sp3UNYY1HzuNe6qbwxSw-6" style="edgeStyle=orthogonalEdgeStyle;rounded=0;orthogonalLoop=1;jettySize=auto;html=1;" parent="1" source="Sp3UNYY1HzuNe6qbwxSw-2" target="Sp3UNYY1HzuNe6qbwxSw-4" edge="1">
          <mxGeometry relative="1" as="geometry" />
        </mxCell>
        <mxCell id="cvl4Ks4fMDcgnYN8bCyd-50" value="sidecarProxy" style="edgeLabel;html=1;align=center;verticalAlign=middle;resizable=0;points=[];" parent="Sp3UNYY1HzuNe6qbwxSw-6" vertex="1" connectable="0">
          <mxGeometry x="0.7515" y="-2" relative="1" as="geometry">
            <mxPoint x="2" y="-12.5" as="offset" />
          </mxGeometry>
        </mxCell>
        <mxCell id="Sp3UNYY1HzuNe6qbwxSw-2" value="BuildClusters" style="text;html=1;strokeColor=#d79b00;fillColor=#ffe6cc;align=center;verticalAlign=middle;whiteSpace=wrap;rounded=0;" parent="1" vertex="1">
          <mxGeometry x="175" y="-90" width="140" height="20" as="geometry" />
        </mxCell>
        <mxCell id="Sp3UNYY1HzuNe6qbwxSw-3" value="cluster_bulider.go" style="rounded=1;whiteSpace=wrap;html=1;verticalAlign=top;" parent="1" vertex="1">
          <mxGeometry x="570" y="70" width="280" height="300" as="geometry" />
        </mxCell>
        <mxCell id="Sp3UNYY1HzuNe6qbwxSw-16" value="" style="edgeStyle=orthogonalEdgeStyle;rounded=0;orthogonalLoop=1;jettySize=auto;html=1;" parent="1" source="Sp3UNYY1HzuNe6qbwxSw-4" target="Sp3UNYY1HzuNe6qbwxSw-10" edge="1">
          <mxGeometry relative="1" as="geometry" />
        </mxCell>
        <mxCell id="Sp3UNYY1HzuNe6qbwxSw-4" value="BuildInboundCluster" style="text;html=1;strokeColor=#d79b00;fillColor=#ffe6cc;align=center;verticalAlign=middle;whiteSpace=wrap;rounded=0;" parent="1" vertex="1">
          <mxGeometry x="175" y="150" width="140" height="20" as="geometry" />
        </mxCell>
        <mxCell id="Sp3UNYY1HzuNe6qbwxSw-17" style="edgeStyle=orthogonalEdgeStyle;rounded=0;orthogonalLoop=1;jettySize=auto;html=1;entryX=1;entryY=0.5;entryDx=0;entryDy=0;dashed=1;" parent="1" source="Sp3UNYY1HzuNe6qbwxSw-10" target="Sp3UNYY1HzuNe6qbwxSw-12" edge="1">
          <mxGeometry relative="1" as="geometry" />
        </mxCell>
        <mxCell id="Sp3UNYY1HzuNe6qbwxSw-24" value="" style="edgeStyle=orthogonalEdgeStyle;rounded=0;orthogonalLoop=1;jettySize=auto;html=1;dashed=1;" parent="1" source="Sp3UNYY1HzuNe6qbwxSw-10" target="Sp3UNYY1HzuNe6qbwxSw-21" edge="1">
          <mxGeometry relative="1" as="geometry" />
        </mxCell>
        <mxCell id="Sp3UNYY1HzuNe6qbwxSw-10" value="getActualWildcardAndLocalHost" style="text;html=1;strokeColor=#d79b00;fillColor=#ffe6cc;align=center;verticalAlign=middle;whiteSpace=wrap;rounded=0;" parent="1" vertex="1">
          <mxGeometry x="152.5" y="280" width="185" height="20" as="geometry" />
        </mxCell>
        <mxCell id="Sp3UNYY1HzuNe6qbwxSw-25" style="edgeStyle=orthogonalEdgeStyle;rounded=0;orthogonalLoop=1;jettySize=auto;html=1;entryX=0.5;entryY=0;entryDx=0;entryDy=0;" parent="1" source="Sp3UNYY1HzuNe6qbwxSw-12" target="Sp3UNYY1HzuNe6qbwxSw-19" edge="1">
          <mxGeometry relative="1" as="geometry" />
        </mxCell>
        <mxCell id="Sp3UNYY1HzuNe6qbwxSw-26" style="edgeStyle=orthogonalEdgeStyle;rounded=0;orthogonalLoop=1;jettySize=auto;html=1;entryX=0.5;entryY=0;entryDx=0;entryDy=0;" parent="1" source="Sp3UNYY1HzuNe6qbwxSw-12" target="Sp3UNYY1HzuNe6qbwxSw-18" edge="1">
          <mxGeometry relative="1" as="geometry" />
        </mxCell>
        <mxCell id="Sp3UNYY1HzuNe6qbwxSw-12" value="getActualWildcardAndLocalHost" style="text;html=1;strokeColor=#d79b00;fillColor=#ffe6cc;align=center;verticalAlign=middle;whiteSpace=wrap;rounded=0;" parent="1" vertex="1">
          <mxGeometry x="-285" y="190" width="185" height="20" as="geometry" />
        </mxCell>
        <mxCell id="Sp3UNYY1HzuNe6qbwxSw-14" value="defination" style="text;html=1;strokeColor=#6c8ebf;fillColor=#dae8fc;align=center;verticalAlign=middle;whiteSpace=wrap;rounded=0;" parent="1" vertex="1">
          <mxGeometry x="-390" y="30" width="70" height="20" as="geometry" />
        </mxCell>
        <mxCell id="Sp3UNYY1HzuNe6qbwxSw-15" value="invoke" style="text;html=1;strokeColor=#d79b00;fillColor=#ffe6cc;align=center;verticalAlign=middle;whiteSpace=wrap;rounded=0;" parent="1" vertex="1">
          <mxGeometry x="-390" y="60" width="70" height="20" as="geometry" />
        </mxCell>
        <mxCell id="Sp3UNYY1HzuNe6qbwxSw-18" value="WildcardAddress&lt;br&gt;0.0.0.0" style="text;html=1;strokeColor=#d79b00;fillColor=#ffe6cc;align=center;verticalAlign=middle;whiteSpace=wrap;rounded=0;" parent="1" vertex="1">
          <mxGeometry x="-300" y="290" width="100" height="30" as="geometry" />
        </mxCell>
        <mxCell id="Sp3UNYY1HzuNe6qbwxSw-19" value="LocalhostAddress&lt;br&gt;127.0.0.1" style="text;html=1;strokeColor=#d79b00;fillColor=#ffe6cc;align=center;verticalAlign=middle;whiteSpace=wrap;rounded=0;" parent="1" vertex="1">
          <mxGeometry x="-190" y="290" width="100" height="30" as="geometry" />
        </mxCell>
        <mxCell id="Sp3UNYY1HzuNe6qbwxSw-28" style="edgeStyle=orthogonalEdgeStyle;rounded=0;orthogonalLoop=1;jettySize=auto;html=1;entryX=0.5;entryY=0;entryDx=0;entryDy=0;" parent="1" source="Sp3UNYY1HzuNe6qbwxSw-21" target="cvl4Ks4fMDcgnYN8bCyd-1" edge="1">
          <mxGeometry relative="1" as="geometry">
            <Array as="points">
              <mxPoint x="153" y="370" />
              <mxPoint x="153" y="480" />
            </Array>
            <mxPoint x="150" y="460" as="targetPoint" />
          </mxGeometry>
        </mxCell>
        <mxCell id="Sp3UNYY1HzuNe6qbwxSw-29" value="no" style="edgeLabel;html=1;align=center;verticalAlign=middle;resizable=0;points=[];" parent="Sp3UNYY1HzuNe6qbwxSw-28" vertex="1" connectable="0">
          <mxGeometry x="-0.2078" y="-2" relative="1" as="geometry">
            <mxPoint as="offset" />
          </mxGeometry>
        </mxCell>
        <mxCell id="Sp3UNYY1HzuNe6qbwxSw-21" value="hasCustomIngresslistener" style="rhombus;whiteSpace=wrap;html=1;" parent="1" vertex="1">
          <mxGeometry x="168.75" y="330" width="152.5" height="80" as="geometry" />
        </mxCell>
        <mxCell id="Sp3UNYY1HzuNe6qbwxSw-31" value="" style="shape=image;verticalLabelPosition=bottom;labelBackgroundColor=#ffffff;verticalAlign=top;aspect=fixed;imageAspect=0;image=data:image/png,iVBORw0KGgoAAAANSUhEUgAAAeoAAABvCAYAAAAjZ4PlAAAgAElEQVR4Ae1dz6sdx5XWv5C9d9483i6LeVlpGBgm2LMwAQeyETiQxXgIimGWsrFirAhkeeVNDEIrhWAZr7x4G4uAEsEkK4GNf4AGg42No43AxmhbwzlVp+qcU9XV9/ft2/dbPPre7upT58fX5zunbr/uCyenZwF/8MF+MPDz8Iv/uRl+/R/T9v+//+ZmePU3v8J1Mutc8avw66tDWIzHXr36+/CLn00bq/u4judzfcR89Ltf/lxd6zH2dt8aGPjZf4XfrYCjC/sILOZcI9CzSpaHQdQnp4eiJ3C1am75l1/+PmwsGc/qGl0EUzO6PphIb4ZXr5a/jeBCyV2lMQFRH91FtciFhzGrJnycB+wAA8DApjEAogZRq2UeXGCbvsAgD5gCBoCBdTEAogZRg6iBAWAAGAAGJowBEPWEg7NuFYbzUckDA8AAMHD4GABRg6hRSQMDwAAwAAxMGAMg6gkHB5Xw4VfCiCFiCAwAA+tiAES9ElG/FV7+7Pvwx8/uh4srnQ/grgvcuZz/wfmFED6/EML5KToaXEvAADDQxECXqP90+UH49qWXmyfuO1Fe/PDb8Mevvi9/OyXNLRH1rU+KPdm2T8KLmwLvq/fDja82KG9Teq0j54W74Ycrt8Kb68hY9dx1537rmRA+fyZ8sOr8OG+SuWnfuRHzz68ROkiifvHBvLtZLkK2UXhQIbANufskjHXJch3d15z7xp2foJNex/84F4XKkWCgSdRvvvRR+OH6g/rv8jUGBh93XYzZRwns8rWg5djO/OXwlytKfpK7WCX4Xrjy1ffhyq1e1ZQ6XulKH7xXAE1dJZNVlMNduZAXd7S24+SiIJ/fOKcCipvbd7Cma/42vPxqbQfNeePDt4rOp2eByfvBe3Gb7PJjWFex+asio1p9kDHZLtJB2ebkiz5afuV/Y1eZO8bU+cTMW9tvcXAtfKyxKLi7eCt8q/fnz3fDn1JMZEVI4/DjF2Q+kvtR+MtF+X4WZHyZ3+H0epK9wNxFRpHv94Goh33jfYXv8NUxY6BJ1OKQOnElsHCi0kkuJrRMxkTUlDiFgN14kpuPnbpzK+KrARoJo01yQjiFxByxc1f5bbjxlZyvjvPSsOyneSPBiKyLH96Py9DVONExypLx4kfZRsIshUC7c45zeiLMJCkkx3aU38jbskSvuBXCFX3ylu3RxY/WoZCs2MVziR5SRPiCJMfR+0T5O4+xema9Tlvk6cZ2ulrGmcKhKSZPx4g6kbRguKVrZ25tw9BnELWLZcvH2GcK9iEsYf+8sbQaUfsEykRcOpmTKoHFpBe7GUqQaixdiNX4cadn4sqEG8/h/YpEThypRrLUZKyJg0jJH9Pfk14ssxCuXCTV3DrJOD3onPZ40qeek8dK509ylyZqbaf1b6WH0TURtfKpIWoz1spt2jgyXnwpWyZb6aK1P+VzBzvVuQanI0RNcj1OZU7ZduYW/XtbupHshzs/RSIWf2ILLAADTQysTNSaXKlTyd00ObpKYKpr5mSplr1lybKXjDvBY5LJ3Vzp/vSNZro7NSTTkEvy8ngiQ0VQknRZhiZNljNMhHweyZIlZ9lWMhIBZ3uE+KJdWa9E8tLhil7RF3SDXU30sWCpiwtZgdCybRHgCwerS9sXVm9vt5mrEQOxJ25TZ5twUpau0xwV1mTusW68T9S2+y4yjW6duc04ZyN30p9fCP/31oBcN74nC8fgQ2Bg/hhYnajz0iElUr0MPkzUnGRNV7MBB5sOzZOKlx9JxhOcBjoRTzxOYxuEN0CSkfDa40n+WIEgOjSJz9hINlmylHPzlosCR8quA89j+bdprXeUnQuUSpb1cd8uO7bM6eOy4PdU5Bmy7pAlddSmgDQE2Cfquths6NiZexFb0VE3fGpihOOL4Ahj5o+TLlGPdRXx+EfhW/87nktgPC4vI6YOyZ+z4gXKXWTuTMeIeAHiIGJKN221Cd3O8eKH8jux3V9dPBXhtcHF9vguviLZETuq8UOdOulAssoqQu7Kkw4VEXPRoIqArl0jPlk65kSuD4IhaiZvVygmueNEXWRFjGpij3MNE/1ZOOnMXcW/YSt+o25fA4v4DmPgu2PCQJeoT9KNXvkOcE+urQ6HEhIRtSxp89b9Ju3lXtcJsgNAJgX1v9O0hOxJjYnEjslLrZ5kGskzLhE35KqxTF5p+TrLpuPV3IrQ5DdpWfamrSsw/BKxFApjZKn1iTLsvBHQkTRlDpFNx/T5tJ/IWo7rzyynUQRkck+2ybk8vvJJKQqiXp1486qN/ZmkRZxCshFzBWt9onY4vXytcdd3JOuC5SJbdB+aW473tiDqXuxxrIcdHDsufIwQ9YgzmKjr5LXQsqEiPoBuxM/wVfMGi0PHDYgauD90DEP/3WB4DaJWN4h5InFL3wjmboIJPx+Yn+nJZP94Ntzw1w++z7Iww/V5YNfnhK7DFYha3YXrl8LFMBA1Eo1gAdsuFvCsbyRvEDgwMIaBFYgaTh1zKo4DI8AAMAAMAAObwgCIGh1ft+PbFNAgB0kLGAAGgIHVMNAk6n/9t/9E8gaBAwPAADAADAADE8AAiHoCQUCVuVqVCb/Bb8AAMHAMGABRg6hRMQMDwAAwAAxMGAMg6gkH5xgqRdiIjggYAAaAgT4GQNQNov7DX/8Znj79MXz6Xt95swPXC3c7z8beoy+u/S08fvpjePrZ+6j6G3i1OHwu3P3infDlN9fD3df6MXv93s3w3ZOb4fyN/jgrf3tjoz5Xw+3Ts3D74bvhu69fCa+P2rs9fbzdrNOE/OX1G/oe/fpu+Pud3flqSJfN7L8U/v7k3fDo3vPh5I1XwqMn1ra3/5fw/0746PZc7D0L0yRqScyUnPnvn+H+td05/eiImv7vnf4n/uKt8PFLL8dHwOr/kd9zPE5kfhD14oXK7SujZA2iXi6nzJKo71zdW0FE/mSyXboY6xM1FwOv/TZ8MiOyniBRvx8+PcZudmmwLpdkRitZ/Xx288pRxGPUd/uO3VzmV6TBRcTDS4sXJnPxwa7tUD7fNc5XJ+rnw/nX0kUTaU9nVWhbPpweUb/3aXj69NPw5x5gecxAt03HHv8t/EG6ML1k2pJt9kVS6nfxesyPca6s69vh/mPR68CWajVR627a+GegOOAxYrdb/aBjK8fjLPz5M5H7Y3j817cbiXum8ciYGvD5isdlGfS7J++G+OeTXEyC5Xhcis4JKC015uOaTCnpP7wU9Bx1xxS7IRqXZS5qC8nPetfdmJ73uydWbyEFPSYuBUd7rZ5un7HZys02dHVLNifd7Vxj8bXn6p8DyJZH917hZWC2V3TIvtXnujgbmwQLtNX2OSxkubT/Zji/l+Lx8FL8qUItQUfdns/7KW6y9K5joOMpmODj7meP1r7s+0Xxc8DjpkfUp5J4B8iaCViRgSeSTBrpfDM+yta/PfMyd7WkSuPUHDnA8fw2YSRSybIiaQ+NnRTIukvfU4hH9G3ty5nGI+NtLImveZyTtU3gnBBzQvbyY+KXhHtyGr9n4vFEwd914id5iTwG5/Bzync6z+pqriE3l0/scdn6XS4k6Dx9XH+OMgfmYn95e87CCc89pJsj/WR/8aHY19r6cxNxJt+x3uyTtJ/IranjgD2EM9LdkaL4lX2W46R18fPFoon1MbqpYsrFh+aQ4knmy9sKl3rulp/mv2+CRB2drjspT6w2YUdCzGOYqDXJ2uOWmOmYHisBbxM1n0vdYTOR0jmuuJBusjle5prQtnMz2X7j0Sbq2cdj27ipEmIiMNNVFXzWhOYSfZX0OwSxtG0kSyV+dz4lfUt+dm4mHU1IhtDsWCavTFDF/njjkifqERKhefS8UiS05DubYgHg5lN6F2KMOrD96ngmPi4OBgqJKmZiL/nEzZ3Htucr+iQcGRudj3tE7Y81bRI9j2M7WaLOIEsdspCzJoy4RB2XRg1RD5LpWYg3Jqluuzm2TdQ8d+6YHUD0Unu+Cc4vjbtz/IV5CN/3Eo82USMea+KJE2CdwJnUGsu0OhHn6zMnb0fajOU6OefzVsE66yvLtJpEInGYZVTWv9g22L0lPfRx+mxJP/m5SRhk48B4kk3+Ucv1+bMhsYE4at+Kv5QOJR5t4iy+7sShNQfNZXwtPpc78dvzFX2GiNr6Sfu86Jp8ofQiuXnVRvxwZNvpE/WpXVKm5CykXQWXgjfaxZYOmzqytqw2Udtu3F1cTNSuo54pmDRB7iYebaJGPBwGl8UbJ+NCZvX1FElIkiQn4lZ3KPtUco2yOgSxrK5uPOuSOz5FHG6c2NQlBTon60466yJA+ViRpMg9OR2ZO8tVcgZ0LDLTWDrX66L2FWJUOjR17MRhSL+mHLGhPV/RZ4ioLdb6MRGdaS57XuWnRf15wOMOgKiJNBU5c0fXWq5OIBol6rMQCfr9cP/xELG2iVr+TSh37ybwsQCY///67iMebaJGPCRxrrgdJeqYkIWopcsq3SYlU9UlVUlfkq3WL54jNw6tnHQVYZEMS9x6vvi5Two0hvS6Gm7fuTrcvQ2QV3/uaG/2ockZRU/Sj7rt4lvRSS/323gUYmwTZ/FtKw5p7kEMRJntOLXnK/rURM32SUGXfMDj3b6ic5Lx9c3waJHVhwG/anmH/HlyRM1dkl461iQtwUjLr2XpWxHuAkR9Ijes+WXsSi4tq7uiwC9xm6XzRNZK/3bHXi7QqYNnr/GQOCl/UsyNT48sHhvFS5WkU3LWS7U+SfI5ZSnUENA2iZqJuczbelBLJEw1RpHAOFEL2dfdWyWX/WO7bj/G+EVuoFN+tYRclsjteYWsW0vmPCfHp02c7WX3Mfu0XTUeon7t+Yo+4st2LAqGnfwBrFW+Eh44ou3kiLoE8XDIDDojVgeJgYEO8SBtOfSknQqguZCSJu2V8QR85n9hBFEf+gUO/TOYV04IR+rD1nIkfLjrorN0lXMhacLQ+kQd/VKvMOw6PtOYD0R9pEkaCXkaF+Bu41BIIS6l6mXOY/QHbN4W/lYnaoVRvxR+xLkaRH3Ewd/WRQq5IABgABgABjaHARA1iBpLx8AAMAAMAAMTxgCIesLBQUW6uYoUvoQvgQFg4FAxAKIGUaOSBgaAAWAAGJgwBkDUEw7OoVZ/0BudCzAADAADm8MAiBpEjUoaGAAGgAFgYMIYAFE3giNP42o/KnRzVdLkKs7O27Mmp2sjbtCRsPlcuPvFO+HLb66Hu6/1scr/QtN7deSOfRz1if8yNsX/8WadJuSvQ8D7/HymHglbPaRm8Wtv2dhNk6j9YyH9Yzy3nEC2QtSVTe5RmGvbVF42siwITnrvo9663gPP8V7bH32SWtpHh6bP7SujZA2iXg4j2yCdGAP1qM1NFwJ7frpXz2d0bD8PNIn/q73aA2Z6RJ3wtMC1t2z+mSBRx5c+zK6bZcLTzw13L7dYmwjWIGqam8j6+oP4d+VWeFP02breIOplL9rZjlfPCmcCO4IHXrCd6pnk8fnc9fO4V475nom6p/dhErUm+c7LTiR/bmg7PaLmF2Ool2y0DDUvz9Dkp15zqTtBeflGS7bZF8kzvuzDyc166DH+fdPupRwyL51bEV58i9dT9VIPfn1kfgGFnV9eJyndPukoxYw9L76fu3p5RdZ/oIvQRH35Wvm9agG9tU5aL75Iyb9kYyMe/rzo9x/D/N9ANhCDsRht4Ph4B6eeDNV4+YS8Qav1kggmmYeX0pusYpdYd0yxI2m/lWnEL+7FHF62tc0+dU1IQY+JHVW018py+9ISZ/dpbl3dks3ppRx6roqo02szyxh77nea1NUrNmPnSj4Xknfn5ReCyPERXzPWnIw8N/nnZji/l961/fBSkPlzl9rxmY5BxhHpZwozO7f1x9Vwfu8mv23s0b1L4fxrbXfS7Q19fsGC6GnmfSKdvYs7+6C1bxHfbXbM9Ig6vzFpgKw9cRiiTUTNZJfON+Prbp3JQhMqB4fGWaKMlWE837y9SSVPJswsK5J2Hmv0iEHkuRNR6880VySx4oNMxkm+H39yukZHPbr0bX1h5m76X43n41Q8tOIR/SBFSK/6xrHNXvjsT06mNnFzEjUJU88bk19OxumtUDmJClnJ+fy9JMkYw5RAZYy6fvoxpvOsrma8m8sTYE7QaV59XH8uOjbmGupOee7G+Gaitz6s59bEoD9THOL3Qmjpeyaas0iY2rdDOo/6vTd3mpeIOxEyYYBt0XPTHJ35KSYZO0YfP7f2mcJPwhvhscgSn5R4cOyNXnFMwXHBeBUP1r/IMpgzOhcZ2xgzQaKOBmdiUp0jOYBIIpMfO8oRFBODIgpHYEwyhkz1WHF2m6gNQVVBonMKsXKwSBfpmD1R83fpimMBIB1yDLS1i/0hsmhuPl/PZ8evBJbWzWRdveOcNh5uKXskHqQniFpwt+NtIwlxoqL3Mlf4lvcDvxJe18coWUqnpT/zmBFy1XJGP8cE3U7sMVHbxGvn5mQtetJchkDsWFkZqK4hc47EypOK7E9bOkfP615Y4YnB+J+JyMXC6JBISZOQj4EZ73Tr+bw7tyI6JZ9117pUfrbzF3K1+zk2gz5TsVK2FllKN7FPjYsxbYyRsVx8FmJu2pTHOr23uH+yRJ0vktSRCRloAs9LpZrMNTm2HKcJjj5r8svj20TNc2eSd0FiuWXZOesm8hvHCzG35rPEO05mdnz2X7bJ6bvo/q7e7TmNrmPxAFGXnxkWjcmmxnGSLUlJMMOkNrRM6xOxToL6M+uokuomdGZ95cYrTWCJsPLyrowptpVE3r4O9HH6bEk/naNISXx1klYVmuPJZvJJpVdZ5o3ELPrSVtlV+dMXGD3C6enc9kGxKentyLIUN2pe5ZMmqanjRv6p7oKdPl2fKUwp/5T4Kd0EcyxP+VX9ZOB1ou9WVsFQa+yu9k2fqFMil98tDQlIIPR2lBgKudTduQCmRZxpObpL1LrDFVlpy4TX6t7peKujtvtG7XYrBxsDUFfv6EspouKcbt9oPNBRbyxW+jpY5DMn0V4ioqRYlic5EbvkbfapxBltUkl1EX2WGBMJTpJvIzk7WSX5uutSxmXdSWeR68Y2SWdk7izXyUrzGv+JLrKtCEaIX/QbmZvkNHVu62Jw2J1bzavksy2+kFPHjXxDiE6frs8UptS4El+lm/ajwW1jjIylrcgl3c15Tk99zpY/HwBRR8LKZECJv/n7cXLiAsQQCfr9cP/xELG2iTouN8tytQ9aJCgpKDwoWzeT6TFExHmZXH6jlm58wa6TZQwVEqsCqUvU9W/pJxwf5dcF46Ft137BZ4+zDX7nJNoj6pjQ8nIzj9fdZiTy3E1KgstYU0nV7Csd5crxpbkUoVrirn1UEnl9LOqQCPrO1YHfTYdJrz939FH2YfZD1KNL1P4egOpGsxHC4blcjNz8+Xfv6vd/r7fGgppXEfGyRD1su59bx4yOJcwqvJX4Kt2U/d7/NL781q/l0+dk69c32ysrlQ/9+Zv/Pjmi5t+B853PcSk5k7Q4iMlALzMvRwzSwVakWsmlOVwX7JeCFZnKDV152fup+l/pEcKjZMFEm21XNi1I1NmuJKPym/hvme0CetuYOX8tQNSV3zZdbCxj7zGNrYg6JiizVNvskMpSrUmAKnEW8vOFQEzCw0lyIMkxMZd5y93NZXwkTDVGdUMlkZfxvkiI53t902/z1fK1dLVRnp/b+CURrvarFDfDZCV6Jn/J/CYenpTkHLc1vhu2T3QqfhmaW807QNTeH9F26zMhxOwXY5ub+4kUiLR/nKizTLUiVOwi/1j5Nl4Sc6+v8+sOc8XkiNo6c3+OgR7w/ewxoJLs7G3dYVI9OF8ykdcEfnB2cIxVEbFGzLnQMIXDfvMhiHqNYB4mkPcLOPhsOv7n5T/VdSI204nNbmIhXeVcSJritwGirlaa9o8LEDWIen93HcP3O/Z9TGJlWXA6S3u7Iab9J1zYue0YrEHUTNDxp5P6Z4Bt692XD6IGWeyYLPqARCKDf4ABYAAYsBgAUYOoQdTAADAADAADE8YAiHrCwUFVaatK+AP+AAaAgWPEAIgaRI1KGhgABoABYGDCGABRTzg4x1g5wmZ0TMAAMAAMWAyAqEHUqKSBAWAAGAAGJoyB+RP1Qk/GstXLWDUXnyDmnsA14SCP2ZOPt96etRO74mNi9/sY0fIM+OyPdW2Xp9jt9Elrz4W7X7wTvvzmerj7Wh/X8elR0/kf2qhP/Jexbf+P9yJPKlsOB+l/kg/w/9LZ1/K0r3UxP4Xz1QNcNKZiPBe/PpaLf/9aW1fWBIk6PTM7P0ozPiq0vGlqSYdMiqi3QAabuDB676PO7wfXj2wdet75QGxGY7AiUZNch5PVyX4LsVmHqEd9NuBrwcPtK6NkDaJ+foNd5BpEvecnxPWIevMFzQhuBb/rPLikS9Rp/gWuj3XJdZPnT5aoVybmHOgUkHUTnpe31vctkMFa+qiLhsj6+oP4d+VWeLOSG8l0pbhsKwYblTux2GzUNhXnKq4TOkYJNnWkXERs8RGO+yOghr/3TNQ9Qtmfn9Z9cEl6mI/CVM/OqR87PKKmBPbZ+0G/CMK/fEIf444rvziDkjEtWacOjrsx+/ILf64hJumQGufFF0sMy7Yv3Cjdqdd9b4DRRH35WqPT6BA1xUR1ttkm469i89OnxefG360lYi9Dj+mS2Xis/UtMyIYc7wVwZmNqfwrRx7I/hCR7sr292a/FZ+tgJHbR6sUV1ZLnyNPL1NOb+AlnmkwpKT68FPQc/mUH+WUI+jzxy9iWOyXR3S7Z05w0V+wOW0+X8naV13fyaw1H9NZy/QtBtL31y0ao074abmu/5eVxeYSn2CRba1s33louvbgj+5XsvRnO76X3YT+8lH2Tn7plzrVPqTM2yQtBjHx55WZL52jz+b2b/C7uR/cuhfOvaZzYlXR7Q9tf5re+FvkSr3hOtoEx09rXKIjG8DXh44dJ1JS8JGEzSagk1vpuiJoIoyRVTqhdWWVsvmA4mao5OcCxIyuy43ebpOO+TAZTAUZ36VsAP0TUtL/hI20bxSTHQOTZLRO2xCGf6+eM37NPu3LH4uHj42LDOFI445gXO1lfZVMsODwmBt617WXzd3du1zbru4zL7LcFj3OiluQZz+EEnZO9l+MTYvyeyViIVM7n7yUBRz3jOYVQ/BwD372uTrYQi+jC3zMhnkWSEr38u5C93m4uLyvO5e1Kb1xScxh78ys5vQ+HX585HlcvS8cjFSbkg0TI5BvW3evIx2t7aP7Bjtr5iIsdZyPHOPmWiLXIkqKpYI/J2egVx1hCjtioxjosjPttAGPLXj87HD9ZotYdWiG/s8DvO1YJMnZFkkBdsiVHmoTXO+4TdwwmEXkmBglMh6g1Cdfk05hfZE5h272ZzJOmgN2RZ8sOEwM5z25rX6V3XZtYu3gywelOXRHrae1rM0elkxvfPd7yhTs/+aGJn0o2yRMMJ79UY6y/NpKMfLI97b/ezxMW60BJUghRf2b7iThKMl5HZ5pbSDjKsYm8IiBNPvpzikshjdQZig18XMv2ZEhx0MdLXCodBnxg5qYxDf0W8VU/HkpHJb+pozru5610Tf4jOcPxUHFXmCiylG5JHhP9YAyKj1k/p2+R68aJ7BlsJ0vUmvAMeKoEppNcI1ma8QPHeSm2cWzoPdBzJeouoFvklC4M9ocQpusMSaaJQftiMiSa9GjtM7K6cut4GnnVuW78wPFYtGnMiT3u/GTDoRE1XWuU+OTFHToZN5O8SsR1slUJu4st8eHwVuskutFWOq5KN53M9eekh0nu2gY+Hokk2t6yoUE0UuSYrpDsqc83c9N8Df1MzhvwXWUzjcu2KB2V/OY56rift9I16dKPh7I561N31BI7npPG5Y6c/Kb0r+zXx2iu9mqAt+WQv4Ooc0KOidZ2z619Z+EERN34DTsmWSZD9Rs0XxzZx8OJ2JBoujB5n+uozb6u3Jo4zRzVuW5893iraGnt6yx9G7saxF/NP+y7lRMQJ+hex0tJUH4bTN226XrcPpWUo04qYVfJdjl7hghDbK8ISJOP/qyIJhchld6eCEpBUOzy+3pL39bHlS0N/cSu3pZtHoyHskHJr/xE/lDH/XyVri3/VbFVcVe+LbKUbnKuGhd1aIyRsbooovOq4mg5bHmbp/h9ZkQdE2P+/Vo6vZwUXTJO/3ok5MyJXJMMJUv9XYCyMlE7/UTeQWzbRFSBuuUz9pdb2nU2GxKVYyl+ZXXF6dAlMx/rtJQuv4M7nfheBX8zWcZNOldhgcf74+q7+GXljtrpJ/I2uuUEbUnEyo/JMhMaj9cEFYk8d0ZVslUJW2LKHaa+6WnBpEqyO8voFQEZ8rF68lhVgJQuNOoSj5cujQgmL+8LSTiCJL9VOrDNtQ8KYYntVj8bAyFSqwOP6cZDEZ3yRVNHddzPzeMbtrLPBuOhbFaYKHYr3bKPSkEoOrDfB0k4zvGIbph7Q/w43+1kidr+Ru3uxjUJ0XcjMZnH8z8Nf6aEl8fH5K1lC0kLOCJZyzKuJRd7TMbIUu8IMeREpfVr/P6dx00FdFZf8V0mTyZm8QVtrc/afrU+E5l5K2RKvkhkLcdMvKq5f1Q3rY3HQ8eT5BKpDtslOpe4CLlH3fTxts+y7lWBQeNrv2n9mgXjuljhBK0TXUygemm56lYSOciYTOKki0rKMe4qYWddIylVcvPx4l/BTt4yWZdleb1UWhGQJx99brrDO+uuj/EdzoWkZW4mjXz3sz7e8Jm5O7r2QSEsZavRQceExsgcet507mA8FBkqX2g/8edsk/jVzyFzp+OaOI3OdFzOVTbTmET0xW4nUxdNBgcJK0nHHK80hmPSKiKMDOXjA94/QaLepmPr5C0XIrbb9PsByq7I9ABtGEtMKoEfNf4VmUzVD/MiJVVEjGG0c7wQ/wyvTWc3iNo5ZKoXKvTa8cV4BEQ9r+S/Bj6mTNTStc6qc9wAUVg3vw4AAALRSURBVLNfpINfI/YHkv9B1AcSKBD1ji/GWRK1X3I8nkTXvX6mTNSzzE9rELUULoO/j+84T+woPkdG1PMMYjcJ7QhI0AHYAgaAAWBgOxgAUYPIBv/VChfddi46+BV+BQaAgWUw0CTqZQRgLAAHDAADwAAwAAxsDwMganTU6KiBAWAAGAAGJowBEPWEg4MKdXsVKnwL3wIDwMChYABEDaJGJQ0MAAPAADAwYQwMEvWNOz8J4fMLIfzj2XBjwgYcSkUEPVG9AwPAADAADKyCgUGiFmEfnF8IP9z5KaotFCvAADAADAADwMAeMDBK1CdvPRPC+SmCs4fgSLGELapwYAAYAAaOFwMgahAwijBgABgABoCBCWMARD3h4KCCPt4KGrFH7IEBYEAwME7U//1s+OHzZ8IHIDRUnMAAMAAMAAPAwM4xME7UFBQm6wv4rRoA3TlApaLEFt0FMAAMHCsGxomabibDv2iBoFCkAAPAADAADOwFA4sRNe763ktwjrV6hN3onIABYAAYKBgAUaNCRBECDAADwAAwMGEMgKgnHBxUlKWihC/gC2AAGDhWDIwSNZ5MhovjWC8O2A3sAwPAwBQwMEjU+Vnf+NcsLAlh1QEYAAaAAWBgbxgYJOopVBHQAdUsMAAMAAPAwLFjAESNKnFvVeKxX3ywHwQEDAADi2AARA2iBlEDA8AAMAAMTBgDIOoJB2eRSgtjUJEDA8AAMDBvDICoQdSopIEBYAAYAAYmjAEQ9YSDgyp53lUy4ov4AgPAwCIYAFGDqFFJAwPAADAADEwYAyDqCQdnkUoLY1CRAwPAADAwbwyAqEHUqKSBAWAAGAAGJowBEPWEg4Mqed5VMuKL+AIDwMAiGABRg6hRSQMDwAAwAAxMGAMg6gkHZ5FKC2NQkQMDwAAwMG8MgKhB1KikgQFgABgABiaMARD1hIODKnneVTLii/gCA8DAIhj4fz82HOtpSU5SAAAAAElFTkSuQmCC;" parent="1" vertex="1">
          <mxGeometry x="540" y="620" width="490" height="111" as="geometry" />
        </mxCell>
        <mxCell id="cvl4Ks4fMDcgnYN8bCyd-2" value="clusterToBuild&lt;br&gt;hashmap" style="ellipse;whiteSpace=wrap;html=1;verticalAlign=top;" parent="1" vertex="1">
          <mxGeometry x="70" y="631" width="160" height="100" as="geometry" />
        </mxCell>
        <mxCell id="cvl4Ks4fMDcgnYN8bCyd-13" style="edgeStyle=orthogonalEdgeStyle;rounded=0;orthogonalLoop=1;jettySize=auto;html=1;entryX=1.003;entryY=-0.2;entryDx=0;entryDy=0;entryPerimeter=0;" parent="1" source="cvl4Ks4fMDcgnYN8bCyd-3" target="cvl4Ks4fMDcgnYN8bCyd-11" edge="1">
          <mxGeometry relative="1" as="geometry">
            <Array as="points">
              <mxPoint x="270" y="550" />
              <mxPoint x="270" y="686" />
            </Array>
          </mxGeometry>
        </mxCell>
        <mxCell id="cvl4Ks4fMDcgnYN8bCyd-3" value="serviceInstance" style="rounded=1;whiteSpace=wrap;html=1;" parent="1" vertex="1">
          <mxGeometry x="105" y="540" width="90" height="20" as="geometry" />
        </mxCell>
        <mxCell id="cvl4Ks4fMDcgnYN8bCyd-8" value="" style="shape=table;html=1;whiteSpace=wrap;startSize=0;container=1;collapsible=0;childLayout=tableLayout;" parent="1" vertex="1">
          <mxGeometry x="95" y="670" width="110" height="40" as="geometry" />
        </mxCell>
        <mxCell id="cvl4Ks4fMDcgnYN8bCyd-9" value="" style="shape=partialRectangle;html=1;whiteSpace=wrap;collapsible=0;dropTarget=0;pointerEvents=0;fillColor=none;top=0;left=0;bottom=0;right=0;points=[[0,0.5],[1,0.5]];portConstraint=eastwest;" parent="cvl4Ks4fMDcgnYN8bCyd-8" vertex="1">
          <mxGeometry width="110" height="20" as="geometry" />
        </mxCell>
        <mxCell id="cvl4Ks4fMDcgnYN8bCyd-10" value="ep(port)" style="shape=partialRectangle;html=1;whiteSpace=wrap;connectable=0;overflow=hidden;fillColor=none;top=0;left=0;bottom=0;right=0;" parent="cvl4Ks4fMDcgnYN8bCyd-9" vertex="1">
          <mxGeometry width="110" height="20" as="geometry" />
        </mxCell>
        <mxCell id="cvl4Ks4fMDcgnYN8bCyd-11" value="" style="shape=partialRectangle;html=1;whiteSpace=wrap;collapsible=0;dropTarget=0;pointerEvents=0;fillColor=none;top=0;left=0;bottom=0;right=0;points=[[0,0.5],[1,0.5]];portConstraint=eastwest;" parent="cvl4Ks4fMDcgnYN8bCyd-8" vertex="1">
          <mxGeometry y="20" width="110" height="20" as="geometry" />
        </mxCell>
        <mxCell id="cvl4Ks4fMDcgnYN8bCyd-12" value="serviceInstance" style="shape=partialRectangle;html=1;whiteSpace=wrap;connectable=0;overflow=hidden;fillColor=none;top=0;left=0;bottom=0;right=0;" parent="cvl4Ks4fMDcgnYN8bCyd-11" vertex="1">
          <mxGeometry width="110" height="20" as="geometry" />
        </mxCell>
        <mxCell id="cvl4Ks4fMDcgnYN8bCyd-14" value="cluster list" style="ellipse;whiteSpace=wrap;html=1;verticalAlign=top;" parent="1" vertex="1">
          <mxGeometry x="70" y="870" width="160" height="100" as="geometry" />
        </mxCell>
        <mxCell id="cvl4Ks4fMDcgnYN8bCyd-19" style="edgeStyle=orthogonalEdgeStyle;rounded=0;orthogonalLoop=1;jettySize=auto;html=1;entryX=1;entryY=0.5;entryDx=0;entryDy=0;" parent="1" source="cvl4Ks4fMDcgnYN8bCyd-15" target="cvl4Ks4fMDcgnYN8bCyd-18" edge="1">
          <mxGeometry relative="1" as="geometry">
            <Array as="points">
              <mxPoint x="240" y="820" />
              <mxPoint x="240" y="930" />
            </Array>
          </mxGeometry>
        </mxCell>
        <mxCell id="cvl4Ks4fMDcgnYN8bCyd-20" value="condionallyAppend" style="edgeLabel;html=1;align=center;verticalAlign=middle;resizable=0;points=[];" parent="cvl4Ks4fMDcgnYN8bCyd-19" vertex="1" connectable="0">
          <mxGeometry x="0.15" y="1" relative="1" as="geometry">
            <mxPoint as="offset" />
          </mxGeometry>
        </mxCell>
        <mxCell id="cvl4Ks4fMDcgnYN8bCyd-15" value="localCluster" style="rounded=1;whiteSpace=wrap;html=1;" parent="1" vertex="1">
          <mxGeometry x="105" y="810" width="90" height="20" as="geometry" />
        </mxCell>
        <mxCell id="cvl4Ks4fMDcgnYN8bCyd-16" style="edgeStyle=orthogonalEdgeStyle;rounded=0;orthogonalLoop=1;jettySize=auto;html=1;" parent="1" source="cvl4Ks4fMDcgnYN8bCyd-11" edge="1">
          <mxGeometry relative="1" as="geometry">
            <Array as="points">
              <mxPoint x="150" y="820" />
            </Array>
            <mxPoint x="150" y="810" as="targetPoint" />
          </mxGeometry>
        </mxCell>
        <mxCell id="cvl4Ks4fMDcgnYN8bCyd-18" value="localCluster" style="rounded=1;whiteSpace=wrap;html=1;" parent="1" vertex="1">
          <mxGeometry x="105" y="920" width="90" height="20" as="geometry" />
        </mxCell>
        <mxCell id="cvl4Ks4fMDcgnYN8bCyd-23" style="edgeStyle=orthogonalEdgeStyle;rounded=0;orthogonalLoop=1;jettySize=auto;html=1;entryX=1;entryY=0.5;entryDx=0;entryDy=0;dashed=1;" parent="1" source="cvl4Ks4fMDcgnYN8bCyd-27" target="cvl4Ks4fMDcgnYN8bCyd-22" edge="1">
          <mxGeometry relative="1" as="geometry">
            <mxPoint x="70" y="760" as="sourcePoint" />
          </mxGeometry>
        </mxCell>
        <mxCell id="cvl4Ks4fMDcgnYN8bCyd-26" value="" style="edgeStyle=orthogonalEdgeStyle;rounded=0;orthogonalLoop=1;jettySize=auto;html=1;" parent="1" source="cvl4Ks4fMDcgnYN8bCyd-22" target="cvl4Ks4fMDcgnYN8bCyd-25" edge="1">
          <mxGeometry relative="1" as="geometry" />
        </mxCell>
        <mxCell id="cvl4Ks4fMDcgnYN8bCyd-22" value="buildInboundClusterForOrUDS" style="text;html=1;strokeColor=#d79b00;fillColor=#ffe6cc;align=center;verticalAlign=middle;whiteSpace=wrap;rounded=0;" parent="1" vertex="1">
          <mxGeometry x="-272.5" y="750" width="182.5" height="20" as="geometry" />
        </mxCell>
        <mxCell id="cvl4Ks4fMDcgnYN8bCyd-24" value="buildInboundClusterForOrUDS" style="text;html=1;strokeColor=#d79b00;fillColor=#ffe6cc;align=center;verticalAlign=middle;whiteSpace=wrap;rounded=0;" parent="1" vertex="1">
          <mxGeometry x="70" y="750" width="182.5" height="20" as="geometry" />
        </mxCell>
        <mxCell id="cvl4Ks4fMDcgnYN8bCyd-31" style="edgeStyle=orthogonalEdgeStyle;rounded=0;orthogonalLoop=1;jettySize=auto;html=1;entryX=0;entryY=0.75;entryDx=0;entryDy=0;" parent="1" source="cvl4Ks4fMDcgnYN8bCyd-25" target="cvl4Ks4fMDcgnYN8bCyd-30" edge="1">
          <mxGeometry relative="1" as="geometry">
            <Array as="points">
              <mxPoint x="-30" y="960" />
              <mxPoint x="-30" y="1075" />
            </Array>
          </mxGeometry>
        </mxCell>
        <mxCell id="cvl4Ks4fMDcgnYN8bCyd-25" value="buildInboundLocalityLBendpoints" style="text;html=1;strokeColor=#d79b00;fillColor=#ffe6cc;align=center;verticalAlign=middle;whiteSpace=wrap;rounded=0;" parent="1" vertex="1">
          <mxGeometry x="-272.5" y="950" width="182.5" height="20" as="geometry" />
        </mxCell>
        <mxCell id="cvl4Ks4fMDcgnYN8bCyd-27" value="bind endpointAddress" style="text;html=1;strokeColor=#d79b00;fillColor=#ffe6cc;align=center;verticalAlign=middle;whiteSpace=wrap;rounded=0;" parent="1" vertex="1">
          <mxGeometry x="-60" y="745" width="100" height="30" as="geometry" />
        </mxCell>
        <mxCell id="cvl4Ks4fMDcgnYN8bCyd-29" style="edgeStyle=orthogonalEdgeStyle;rounded=0;orthogonalLoop=1;jettySize=auto;html=1;entryX=1;entryY=0.5;entryDx=0;entryDy=0;dashed=1;" parent="1" target="cvl4Ks4fMDcgnYN8bCyd-27" edge="1">
          <mxGeometry relative="1" as="geometry">
            <mxPoint x="70" y="760" as="sourcePoint" />
            <mxPoint x="-90" y="760" as="targetPoint" />
          </mxGeometry>
        </mxCell>
        <mxCell id="cvl4Ks4fMDcgnYN8bCyd-33" value="" style="edgeStyle=orthogonalEdgeStyle;rounded=0;orthogonalLoop=1;jettySize=auto;html=1;" parent="1" source="cvl4Ks4fMDcgnYN8bCyd-30" target="cvl4Ks4fMDcgnYN8bCyd-32" edge="1">
          <mxGeometry relative="1" as="geometry" />
        </mxCell>
        <mxCell id="cvl4Ks4fMDcgnYN8bCyd-30" value="buildInboundLocalityLBendpoints" style="text;html=1;strokeColor=#d79b00;fillColor=#ffe6cc;align=center;verticalAlign=middle;whiteSpace=wrap;rounded=0;" parent="1" vertex="1">
          <mxGeometry x="105" y="1060" width="182.5" height="20" as="geometry" />
        </mxCell>
        <mxCell id="cvl4Ks4fMDcgnYN8bCyd-32" value="后续操作暂不考虑" style="whiteSpace=wrap;html=1;rounded=0;strokeColor=#d79b00;fillColor=#ffe6cc;" parent="1" vertex="1">
          <mxGeometry x="136.25" y="1140" width="120" height="60" as="geometry" />
        </mxCell>
        <mxCell id="cvl4Ks4fMDcgnYN8bCyd-36" style="edgeStyle=orthogonalEdgeStyle;rounded=0;orthogonalLoop=1;jettySize=auto;html=1;" parent="1" source="cvl4Ks4fMDcgnYN8bCyd-34" target="cvl4Ks4fMDcgnYN8bCyd-35" edge="1">
          <mxGeometry relative="1" as="geometry" />
        </mxCell>
        <mxCell id="cvl4Ks4fMDcgnYN8bCyd-34" value="BuildInboundPassthroughClusters" style="text;html=1;strokeColor=#d79b00;fillColor=#ffe6cc;align=center;verticalAlign=middle;whiteSpace=wrap;rounded=0;" parent="1" vertex="1">
          <mxGeometry x="136.25" y="200" width="245" height="20" as="geometry" />
        </mxCell>
        <mxCell id="cvl4Ks4fMDcgnYN8bCyd-38" value="" style="edgeStyle=orthogonalEdgeStyle;rounded=0;orthogonalLoop=1;jettySize=auto;html=1;" parent="1" source="cvl4Ks4fMDcgnYN8bCyd-35" target="cvl4Ks4fMDcgnYN8bCyd-37" edge="1">
          <mxGeometry relative="1" as="geometry" />
        </mxCell>
        <mxCell id="cvl4Ks4fMDcgnYN8bCyd-35" value="BuildInboundPassthroughClusters" style="text;html=1;strokeColor=#d79b00;fillColor=#ffe6cc;align=center;verticalAlign=middle;whiteSpace=wrap;rounded=0;" parent="1" vertex="1">
          <mxGeometry x="587.5" y="200" width="245" height="20" as="geometry" />
        </mxCell>
        <mxCell id="cvl4Ks4fMDcgnYN8bCyd-44" value="" style="edgeStyle=orthogonalEdgeStyle;rounded=0;orthogonalLoop=1;jettySize=auto;html=1;" parent="1" source="cvl4Ks4fMDcgnYN8bCyd-37" target="cvl4Ks4fMDcgnYN8bCyd-43" edge="1">
          <mxGeometry relative="1" as="geometry" />
        </mxCell>
        <mxCell id="cvl4Ks4fMDcgnYN8bCyd-37" value="core.BindConfig" style="text;html=1;strokeColor=#d79b00;fillColor=#ffe6cc;align=center;verticalAlign=middle;whiteSpace=wrap;rounded=0;" parent="1" vertex="1">
          <mxGeometry x="587.5" y="260" width="245" height="20" as="geometry" />
        </mxCell>
        <mxCell id="cvl4Ks4fMDcgnYN8bCyd-41" value="istio-dev/pilot/pkg/networking/util/util.go" style="rounded=1;whiteSpace=wrap;html=1;verticalAlign=top;" parent="1" vertex="1">
          <mxGeometry x="890" y="90" width="280" height="300" as="geometry" />
        </mxCell>
        <mxCell id="cvl4Ks4fMDcgnYN8bCyd-45" style="edgeStyle=orthogonalEdgeStyle;rounded=0;orthogonalLoop=1;jettySize=auto;html=1;entryX=0;entryY=0.5;entryDx=0;entryDy=0;" parent="1" source="cvl4Ks4fMDcgnYN8bCyd-43" target="cvl4Ks4fMDcgnYN8bCyd-39" edge="1">
          <mxGeometry relative="1" as="geometry" />
        </mxCell>
        <mxCell id="cvl4Ks4fMDcgnYN8bCyd-43" value="util.InbounPassthroughBindIpv4" style="text;html=1;strokeColor=#d79b00;fillColor=#ffe6cc;align=center;verticalAlign=middle;whiteSpace=wrap;rounded=0;" parent="1" vertex="1">
          <mxGeometry x="587.5" y="320" width="245" height="20" as="geometry" />
        </mxCell>
        <mxCell id="cvl4Ks4fMDcgnYN8bCyd-39" value="InbounPassthroughBindIpv4=127.0.0.6" style="text;html=1;strokeColor=#d79b00;fillColor=#ffe6cc;align=center;verticalAlign=middle;whiteSpace=wrap;rounded=0;" parent="1" vertex="1">
          <mxGeometry x="910" y="320" width="245" height="20" as="geometry" />
        </mxCell>
        <mxCell id="cvl4Ks4fMDcgnYN8bCyd-54" value="" style="edgeStyle=orthogonalEdgeStyle;rounded=0;orthogonalLoop=1;jettySize=auto;html=1;dashed=1;" parent="1" source="cvl4Ks4fMDcgnYN8bCyd-49" target="cvl4Ks4fMDcgnYN8bCyd-53" edge="1">
          <mxGeometry relative="1" as="geometry" />
        </mxCell>
        <mxCell id="cvl4Ks4fMDcgnYN8bCyd-49" value="proxy.type" style="rhombus;whiteSpace=wrap;html=1;" parent="1" vertex="1">
          <mxGeometry x="205" width="80" height="80" as="geometry" />
        </mxCell>
        <mxCell id="cvl4Ks4fMDcgnYN8bCyd-53" value="gateway proxy" style="text;html=1;strokeColor=#d79b00;fillColor=#ffe6cc;align=center;verticalAlign=middle;whiteSpace=wrap;rounded=0;" parent="1" vertex="1">
          <mxGeometry x="-15" y="30" width="110" height="20" as="geometry" />
        </mxCell>
        <mxCell id="6wCrR8KFPUISyVn_Sti5-1" value="" style="shape=curlyBracket;whiteSpace=wrap;html=1;rounded=1;rotation=90;" parent="1" vertex="1">
          <mxGeometry x="700" y="-94.39" width="20" height="240" as="geometry" />
        </mxCell>
      </root>
    </mxGraphModel>
  </diagram>
</mxfile>
